<svg xmlns="http://www.w3.org/2000/svg" viewBox="0 0 168 168">
  <path fill="#1ED760" d="M84 0C37.6 0 0 37.6 0 84s37.6 84 84 84 84-37.6 84-84S130.4 0 84 0zm38.6 121.2c-1.5 2.5-4.7 3.3-7.2 1.8-19.7-12-44.5-14.7-73.7-8.1-2.8.6-5.6-1.1-6.2-3.9-.6-2.8 1.1-5.6 3.9-6.2 32-7.3 59.4-4.2 81.5 9.3 2.5 1.5 3.3 4.7 1.7 7.1zm10.3-22.9c-1.9 3.1-5.9 4.1-9 2.2-22.5-13.8-56.9-17.8-83.5-9.7-3.4 1-7.1-.9-8.1-4.4-1-3.4.9-7.1 4.4-8.1 30.4-9.2 68.2-4.7 94 11.1 3.1 1.9 4.1 5.9 2.2 9zm.9-23.8c-27-16-71.5-17.5-97.3-9.7-4.1 1.3-8.5-1.1-9.8-5.2-1.3-4.1 1.1-8.5 5.2-9.8 29.6-9 78.8-7.2 109.8 11.2 3.7 2.2 4.9 7 2.7 10.6-2.2 3.7-7 4.9-10.6 2.9z"/>
</svg>
